# xmcd
#
# Track frame offsets: 
#        150
#        17350
#        28265
#        39122
#        55765
#        73587
#        89710
#        101127
#        112290
#        124957
#        138862
#        150310
#
# Disc length: 2186 seconds
#
# Revision: 4
# Processed by: cddbd v1.5.2PL0 Copyright (c) Steve Scherf et al.
# Submitted via: ExactAudioCopy v0.95b4
#
DISCID=9e08880c
DTITLE=Freddie King - Freddie King Is A Blues Master
DYEAR=1900
DGENRE=Blues
TTITLE0=Play It Cool
TTITLE1=That Will Never Do
TTITLE2=It's Too Late, She's Gone
TTITLE3=Blue Shadows
TTITLE4=Today I Sing The Blues
TTITLE5=Get Out Of My Life, Woman
TTITLE6=Hideaway
TTITLE7=Funky
TTITLE8=Hot Tomato
TTITLE9=Wide Open
TTITLE10=Sweet Thing
TTITLE11=Let Me Down Easy
EXTD=
EXTT0=
EXTT1=
EXTT2=
EXTT3=
EXTT4=
EXTT5=
EXTT6=
EXTT7=
EXTT8=
EXTT9=
EXTT10=
EXTT11=
PLAYORDER=
